<?xml version="1.0" encoding="UTF-8" standalone="no"?>
<svg width="45px" height="45px" viewBox="0 0 45 45" version="1.1" xmlns="http://www.w3.org/2000/svg" xmlns:xlink="http://www.w3.org/1999/xlink">
    <!-- Generator: Sketch 3.7.2 (28276) - http://www.bohemiancoding.com/sketch -->
    <title>facebook_icon</title>
    <desc>Created with Sketch.</desc>
    <defs></defs>
    <g id="Page-1" stroke="none" stroke-width="1" fill="none" fill-rule="evenodd">
        <g id="portfolio_gon" transform="translate(-698.000000, -3695.000000)">
            <g id="contact" transform="translate(0.000000, 2987.000000)">
                <g id="social" transform="translate(582.000000, 708.000000)">
                    <g id="facebook_icon" transform="translate(116.000000, 0.000000)">
                        <path d="M22.5,0 C10.0734375,0 0,10.0734375 0,22.5 C0,34.9270312 10.0734375,45 22.5,45 C34.9265625,45 45,34.9270312 45,22.5 C45,10.0734375 34.9265625,0 22.5,0 L22.5,0 Z" id="Shape" fill="#3B5998"></path>
                        <path d="M27.8292188,15.5484375 L24.44625,15.5484375 C24.0459375,15.5484375 23.6001563,16.0739062 23.6001563,16.7779687 L23.6001563,19.220625 L27.82875,19.220625 L27.82875,22.7025 L23.6001563,22.7025 L23.6001563,33.1584375 L19.6064063,33.1584375 L19.6064063,22.7025 L15.98625,22.7025 L15.98625,19.220625 L19.6064063,19.220625 L19.6064063,17.17125 C19.6064063,14.2326562 21.6464063,11.8425 24.4457813,11.8425 L27.82875,11.8425 L27.8292188,15.5484375 L27.8292188,15.5484375 L27.8292188,15.5484375 Z" id="Path" fill="#FFFFFF"></path>
                    </g>
                </g>
            </g>
        </g>
    </g>
</svg>