<?xml version="1.0" encoding="UTF-8" standalone="no"?>
<svg width="45px" height="45px" viewBox="0 0 45 45" version="1.1" xmlns="http://www.w3.org/2000/svg" xmlns:xlink="http://www.w3.org/1999/xlink">
    <!-- Generator: Sketch 3.7.2 (28276) - http://www.bohemiancoding.com/sketch -->
    <title>github-logo</title>
    <desc>Created with Sketch.</desc>
    <defs></defs>
    <g id="Page-1" stroke="none" stroke-width="1" fill="none" fill-rule="evenodd">
        <g id="portfolio_gon" transform="translate(-814.000000, -3695.000000)">
            <g id="contact" transform="translate(0.000000, 2987.000000)">
                <g id="social" transform="translate(582.000000, 708.000000)">
                    <g id="github-logo" transform="translate(232.000000, 0.000000)">
                        <path d="M22.5,0 C10.0729688,0 0,10.0734375 0,22.5 C0,34.9265625 10.0729688,45 22.5,45 C34.9260937,45 45,34.9265625 45,22.5 C45,10.0734375 34.9260937,0 22.5,0 L22.5,0 Z" id="Shape" fill="#29363B"></path>
                        <path d="M24.5521875,31.7348438 C24.1490625,31.7348438 23.3475,31.7357813 22.5,31.7367188 C21.6520312,31.7357813 20.85,31.7348438 20.4473437,31.7348438 C18.6646875,31.7348438 11.6053125,31.5984375 11.6053125,23.08875 C11.6053125,21.1307813 12.2765625,19.6982813 13.3748437,18.5053125 C13.1995312,18.0726563 13.190625,15.6154688 14.1257812,13.2632813 C14.1257812,13.2632813 16.2707812,13.4985938 19.5164062,15.725625 C20.1965625,15.5376563 21.3482812,15.4439063 22.5,15.4439063 C23.6507812,15.4439063 24.8025,15.5371875 25.4835937,15.725625 C28.72875,13.4985938 30.8732812,13.2632813 30.8732812,13.2632813 C31.8084375,15.6154688 31.8,18.0726563 31.6246875,18.5053125 C32.7234375,19.6982813 33.3946875,21.13125 33.3946875,23.08875 C33.3946875,31.5984375 26.3348437,31.7348438 24.5521875,31.7348438 Z M22.4667188,22.3809375 C19.674375,22.3809375 17.2139063,21.6740625 15.7598438,23.0090625 C14.8884375,23.8101562 14.5214063,24.7753125 14.5214063,25.8145312 C14.5214063,30.155625 17.9995313,30.6885937 22.46625,30.6885937 L22.5328125,30.6885937 C26.9995313,30.6885937 30.4776563,30.1551562 30.4776563,25.8145312 C30.4776563,24.7748437 30.110625,23.8101562 29.2392188,23.0090625 C27.7851563,21.6740625 25.3251563,22.3809375 22.5328125,22.3809375 C22.48875,22.3804687 22.4770313,22.3809375 22.4667188,22.3809375 Z M26.2645312,28.3129687 C25.4142187,28.3129687 24.7246875,27.3585937 24.7246875,26.1815625 C24.7246875,25.0045312 25.4142187,24.050625 26.2645312,24.050625 C27.1139062,24.050625 27.8034375,25.0045312 27.8034375,26.1815625 C27.8034375,27.3585937 27.114375,28.3129687 26.2645312,28.3129687 Z M18.735,28.3129687 C17.8851563,28.3129687 17.1960938,27.3585937 17.1960938,26.1815625 C17.1960938,25.0045312 17.8851563,24.050625 18.735,24.050625 C19.5848438,24.050625 20.2748438,25.0045312 20.2748438,26.1815625 C20.2748438,27.3585937 19.5848438,28.3129687 18.735,28.3129687 Z" id="Combined-Shape" fill="#FFFFFF"></path>
                    </g>
                </g>
            </g>
        </g>
    </g>
</svg>