<?xml version="1.0" encoding="UTF-8" standalone="no"?>
<svg width="388px" height="204px" viewBox="0 0 388 204" version="1.1" xmlns="http://www.w3.org/2000/svg" xmlns:xlink="http://www.w3.org/1999/xlink">
    <!-- Generator: Sketch 3.7.2 (28276) - http://www.bohemiancoding.com/sketch -->
    <title>ic-gon</title>
    <desc>Created with Sketch.</desc>
    <defs></defs>
    <g id="Page-1" stroke="none" stroke-width="1" fill="none" fill-rule="evenodd">
        <g id="portfolio_gon" transform="translate(-524.000000, -286.000000)">
            <g id="first_section">
                <g id="head_line" transform="translate(514.000000, 285.000000)">
                    <g id="ic-gon" transform="translate(10.000000, 0.000000)">
                        <path d="M102.07666,188.058594 C97.5942159,193.039087 91.0366643,197.051092 82.4038086,200.094727 C73.7709529,203.138362 64.3081569,204.660156 54.0151367,204.660156 C38.1882347,204.660156 25.5435043,199.818082 16.0805664,190.133789 C6.61762847,180.449496 1.55420254,166.974696 0.890136719,149.708984 L0.807128906,139.25 C0.807128906,127.352154 2.90997246,116.962447 7.11572266,108.080566 C11.3214729,99.1986861 17.3394791,92.3644445 25.1699219,87.5776367 C33.0003647,82.7908289 42.0619603,80.3974609 52.3549805,80.3974609 C67.4071391,80.3974609 79.0972891,83.8422507 87.4257812,90.7319336 C95.7542734,97.6216165 100.610182,107.900648 101.993652,121.569336 L73.9370117,121.569336 C72.940913,114.818 70.7827314,110.003595 67.4624023,107.125977 C64.1420732,104.248358 59.4383442,102.80957 53.3510742,102.80957 C46.0463502,102.80957 40.4018754,105.908498 36.4174805,112.106445 C32.4330855,118.304393 30.413249,127.158471 30.3579102,138.668945 L30.3579102,145.973633 C30.3579102,158.037495 32.4192502,167.099091 36.5419922,173.158691 C40.6647342,179.218292 47.1531133,182.248047 56.0073242,182.248047 C63.5887423,182.248047 69.2332171,180.560238 72.940918,177.18457 L72.940918,158.424805 L52.6870117,158.424805 L52.6870117,138.419922 L102.07666,138.419922 L102.07666,188.058594 Z M221.358887,145.060547 C221.358887,156.847715 219.173036,167.278926 214.80127,176.354492 C210.429503,185.430058 204.217814,192.416479 196.166016,197.313965 C188.114218,202.21145 178.941946,204.660156 168.648926,204.660156 C158.355906,204.660156 149.225138,202.294457 141.256348,197.562988 C133.287558,192.831519 127.075869,186.06645 122.621094,177.267578 C118.166319,168.468706 115.828289,158.369523 115.606934,146.969727 L115.606934,140.163086 C115.606934,128.320579 117.77895,117.875534 122.123047,108.827637 C126.467144,99.7797399 132.692668,92.7933189 140.799805,87.8681641 C148.906942,82.9430092 158.134551,80.4804688 168.48291,80.4804688 C178.720592,80.4804688 187.85136,82.9153402 195.875488,87.7851562 C203.899617,92.6549723 210.138975,99.5860553 214.59375,108.578613 C219.048525,117.571171 221.303548,127.877872 221.358887,139.499023 L221.358887,145.060547 Z M191.725098,139.99707 C191.725098,127.988547 189.719096,118.871613 185.707031,112.645996 C181.694967,106.420379 175.953651,103.307617 168.48291,103.307617 C153.873462,103.307617 146.153813,114.264539 145.32373,136.178711 L145.240723,145.060547 C145.240723,156.903054 147.205221,166.006153 151.134277,172.370117 C155.063333,178.734081 160.901491,181.916016 168.648926,181.916016 C176.008989,181.916016 181.681132,178.789419 185.665527,172.536133 C189.649922,166.282846 191.669759,157.290423 191.725098,145.558594 L191.725098,139.99707 Z M337.320801,203 L308.351074,203 L265.519043,127.794922 L265.519043,203 L236.383301,203 L236.383301,82.140625 L265.519043,82.140625 L308.268066,157.345703 L308.268066,82.140625 L337.320801,82.140625 L337.320801,203 Z M371.769043,175.856445 C376.196148,175.856445 379.876125,177.170723 382.809082,179.799316 C385.742039,182.42791 387.208496,185.789693 387.208496,189.884766 C387.208496,193.979838 385.742039,197.341621 382.809082,199.970215 C379.876125,202.598809 376.196148,203.913086 371.769043,203.913086 C367.286599,203.913086 363.592788,202.584974 360.6875,199.928711 C357.782212,197.272448 356.32959,193.924499 356.32959,189.884766 C356.32959,185.845032 357.782212,182.497084 360.6875,179.84082 C363.592788,177.184557 367.286599,175.856445 371.769043,175.856445 L371.769043,175.856445 Z" id="GON." fill="#FFF8F4"></path>
                        <g id="icons" transform="translate(1.000000, 0.000000)" fill="#EA495F">
                            <path d="M48.5867729,17.0056256 C48.9668487,18.4681094 50.2873355,19.5564695 51.8671581,19.5564695 C53.7428786,19.5564695 55.2682833,18.0310648 55.2682833,16.1553443 C55.2682833,14.2796238 53.7428786,12.7542192 51.8671581,12.7542192 C50.2873355,12.7542192 48.9668487,13.8425793 48.5867729,15.3050631 L33.16097,15.3050631 L33.16097,12.7542192 L26.3587197,12.7542192 L26.3587197,15.3050631 L10.9329167,15.3050631 C10.552841,13.8425793 9.23235415,12.7542192 7.65253153,12.7542192 C5.77681102,12.7542192 4.2514064,14.2796238 4.2514064,16.1553443 C4.2514064,18.0310648 5.77681102,19.5564695 7.65253153,19.5564695 C9.23235415,19.5564695 10.552841,18.4681094 10.9329167,17.0056256 L21.0793232,17.0056256 C12.8843122,20.3429796 7.15766782,28.2403922 6.822657,37.4123764 L4.2514064,37.4123764 L4.2514064,44.2146266 L11.0536567,44.2146266 L11.0536567,37.4123764 L8.54107547,37.4123764 C8.94240823,27.3067833 16.3934231,18.8787953 26.3587197,17.2811168 L26.3587197,19.5564695 L33.16097,19.5564695 L33.16097,17.2811168 C43.1262666,18.8787953 50.5772814,27.3059331 50.9786142,37.4123764 L48.466033,37.4123764 L48.466033,44.2146266 L55.2682833,44.2146266 L55.2682833,37.4123764 L52.6978829,37.4123764 C52.3620218,28.2403922 46.6353774,20.3429796 38.4403664,17.0056256 L48.5867729,17.0056256 Z" id="graphic" transform="translate(29.759845, 28.484423) rotate(-40.000000) translate(-29.759845, -28.484423) "></path>
                            <path d="M216.073302,9 L172.943575,9 C170.769118,9 169,10.7748077 169,12.9562586 L169,45.0069616 C169,47.1884125 170.769118,48.9632202 172.943575,48.9632202 L216.073302,48.9632202 C218.247759,48.9632202 220.016877,47.1884125 220.016877,45.0069616 L220.016877,12.9562586 C220.016877,10.7748077 218.247759,9 216.073302,9 Z M172.943575,13.707447 C173.140254,13.707447 173.333939,13.6273202 173.472712,13.4870984 C173.612485,13.3478782 173.692355,13.1535708 173.692355,12.9562586 C173.692355,12.7589465 173.612485,12.5646391 173.472712,12.4254189 C173.333939,12.285197 173.141253,12.2050703 172.943575,12.2050703 C172.745897,12.2050703 172.553211,12.285197 172.414437,12.4254189 C172.274665,12.5646391 172.194795,12.7589465 172.194795,12.9562586 C172.194795,13.1535708 172.274665,13.3478782 172.414437,13.4870984 C172.553211,13.6273202 172.746895,13.707447 172.943575,13.707447 Z M175.339671,13.707447 C175.537349,13.707447 175.730035,13.6273202 175.868808,13.4870984 C176.008581,13.3478782 176.088451,13.1535708 176.088451,12.9562586 C176.088451,12.7589465 176.008581,12.5646391 175.868808,12.4254189 C175.730035,12.285197 175.53635,12.2050703 175.339671,12.2050703 C175.142991,12.2050703 174.949307,12.285197 174.810533,12.4254189 C174.67076,12.5646391 174.590891,12.7589465 174.590891,12.9562586 C174.590891,13.1535708 174.67076,13.3478782 174.810533,13.4870984 C174.949307,13.6273202 175.142991,13.707447 175.339671,13.707447 Z M177.735767,13.707447 C177.932446,13.707447 178.126131,13.6273202 178.264904,13.4870984 C178.404677,13.3478782 178.484547,13.1535708 178.484547,12.9562586 C178.484547,12.7589465 178.404677,12.5646391 178.264904,12.4254189 C178.126131,12.285197 177.932446,12.2050703 177.735767,12.2050703 C177.539087,12.2050703 177.345403,12.285197 177.206629,12.4254189 C177.066856,12.5646391 176.986987,12.7589465 176.986987,12.9562586 C176.986987,13.1535708 177.066856,13.3478782 177.206629,13.4870984 C177.345403,13.6273202 177.539087,13.707447 177.735767,13.707447 Z M180.930561,13.707447 L211.28111,13.707447 C211.694636,13.707447 212.02989,13.3711149 212.02989,12.9562586 C212.02989,12.5414024 211.694636,12.2050703 211.28111,12.2050703 L180.930561,12.2050703 C180.517035,12.2050703 180.181781,12.5414024 180.181781,12.9562586 C180.181781,13.3711149 180.517035,13.707447 180.930561,13.707447 Z M214.475905,13.707447 L216.073302,13.707447 C216.486828,13.707447 216.822082,13.3711149 216.822082,12.9562586 C216.822082,12.5414024 216.486828,12.2050703 216.073302,12.2050703 L214.475905,12.2050703 C214.062379,12.2050703 213.727125,12.5414024 213.727125,12.9562586 C213.727125,13.3711149 214.062379,13.707447 214.475905,13.707447 Z M172.943575,10.5023767 L216.073302,10.5023767 C217.422005,10.5023767 218.519317,11.6032182 218.519317,12.9562586 L218.519317,15.4101406 L170.49756,15.4101406 L170.49756,12.9562586 C170.49756,11.6032182 171.594872,10.5023767 172.943575,10.5023767 Z M212.878508,20.217746 L198.501932,20.217746 C197.20824,20.217746 196.155754,21.2736164 196.155754,22.5714695 L196.155754,22.6215487 L195.307137,22.6215487 C194.013445,22.6215487 192.96096,23.6774191 192.96096,24.9752722 L192.96096,31.435492 L191.263725,31.435492 L191.263725,28.9816101 C191.263725,27.6837569 190.21124,26.6278866 188.917548,26.6278866 L176.138369,26.6278866 C174.844677,26.6278866 173.792192,27.6837569 173.792192,28.9816101 L173.792192,35.3917507 C173.792192,36.6896038 174.844677,37.7454742 176.138369,37.7454742 L188.917548,37.7454742 C190.21124,37.7454742 191.263725,36.6896038 191.263725,35.3917507 L191.263725,32.9378687 L192.96096,32.9378687 L192.96096,39.3980885 C192.96096,40.6959417 194.013445,41.751812 195.307137,41.751812 L196.155754,41.751812 L196.155754,41.8018913 C196.155754,43.0997444 197.20824,44.1556148 198.501932,44.1556148 L212.878508,44.1556148 C214.1722,44.1556148 215.224685,43.0997444 215.224685,41.8018913 L215.224685,40.1993561 C215.224685,38.901503 214.1722,37.8456326 212.878508,37.8456326 L198.501932,37.8456326 C197.20824,37.8456326 196.155754,38.901503 196.155754,40.1993561 L196.155754,40.2494353 L195.307137,40.2494353 C194.8392,40.2494353 194.45852,39.8675312 194.45852,39.3980885 L194.45852,32.9378687 L196.155754,32.9378687 L196.155754,32.987948 C196.155754,34.2858011 197.20824,35.3416715 198.501932,35.3416715 L212.878508,35.3416715 C214.1722,35.3416715 215.224685,34.2858011 215.224685,32.987948 L215.224685,31.3854128 C215.224685,30.0875597 214.1722,29.0316893 212.878508,29.0316893 L198.501932,29.0316893 C197.20824,29.0316893 196.155754,30.0875597 196.155754,31.3854128 L196.155754,31.435492 L194.45852,31.435492 L194.45852,24.9752722 C194.45852,24.5058296 194.8392,24.1239254 195.307137,24.1239254 L196.155754,24.1239254 L196.155754,24.1740047 C196.155754,25.4718578 197.20824,26.5277282 198.501932,26.5277282 L212.878508,26.5277282 C214.1722,26.5277282 215.224685,25.4718578 215.224685,24.1740047 L215.224685,22.5714695 C215.224685,21.2736164 214.1722,20.217746 212.878508,20.217746 Z M189.766165,35.3917507 C189.766165,35.8611933 189.385485,36.2430975 188.917548,36.2430975 L176.138369,36.2430975 C175.670432,36.2430975 175.289752,35.8611933 175.289752,35.3917507 L175.289752,28.9816101 C175.289752,28.5121675 175.670432,28.1302633 176.138369,28.1302633 L188.917548,28.1302633 C189.385485,28.1302633 189.766165,28.5121675 189.766165,28.9816101 L189.766165,35.3917507 Z M197.653314,40.1993561 C197.653314,39.7299135 198.033994,39.3480093 198.501932,39.3480093 L212.878508,39.3480093 C213.346445,39.3480093 213.727125,39.7299135 213.727125,40.1993561 L213.727125,41.8018913 C213.727125,42.2713339 213.346445,42.6532381 212.878508,42.6532381 L198.501932,42.6532381 C198.033994,42.6532381 197.653314,42.2713339 197.653314,41.8018913 L197.653314,40.1993561 Z M197.653314,31.3854128 C197.653314,30.9159702 198.033994,30.534066 198.501932,30.534066 L212.878508,30.534066 C213.346445,30.534066 213.727125,30.9159702 213.727125,31.3854128 L213.727125,32.987948 C213.727125,33.4573906 213.346445,33.8392948 212.878508,33.8392948 L198.501932,33.8392948 C198.033994,33.8392948 197.653314,33.4573906 197.653314,32.987948 L197.653314,31.3854128 Z M213.727125,24.1740047 C213.727125,24.6434473 213.346445,25.0253515 212.878508,25.0253515 L198.501932,25.0253515 C198.033994,25.0253515 197.653314,24.6434473 197.653314,24.1740047 L197.653314,22.5714695 C197.653314,22.1020269 198.033994,21.7201227 198.501932,21.7201227 L212.878508,21.7201227 C213.346445,21.7201227 213.727125,22.1020269 213.727125,22.5714695 L213.727125,24.1740047 Z M216.073302,47.4608435 L172.943575,47.4608435 C171.594872,47.4608435 170.49756,46.360002 170.49756,45.0069616 L170.49756,16.9125173 L218.519317,16.9125173 L218.519317,45.0069616 C218.519317,46.360002 217.422005,47.4608435 216.073302,47.4608435 Z" id="ui/ux"></path>
                            <path d="M338.426001,14.2164476 C338.540592,13.9337757 338.607368,13.6274115 338.607368,13.304708 L338.607368,12.487737 C338.607368,11.1364669 337.497729,10.036824 336.134174,10.036824 L321.761619,10.036824 L319.528325,6.3481999 C319.379933,6.1031086 319.11118,5.95196897 318.821816,5.95196897 L315.524224,5.95196897 C315.069156,5.95196897 314.699826,6.317155 314.699826,6.76893997 L314.699826,10.036824 L313.05103,10.036824 C311.687476,10.036824 310.577836,11.1364669 310.577836,12.487737 L310.577836,13.304708 C310.577836,13.6274115 310.644612,13.9337757 310.759203,14.2164476 C309.708096,14.4983026 308.92904,15.4427211 308.92904,16.572592 L308.92904,21.474418 C308.92904,22.825688 310.03868,23.925331 311.402234,23.925331 L311.550626,23.925331 L312.045264,26.376244 L311.402234,26.376244 C311.168929,26.376244 310.947166,26.4734636 310.791355,26.6450275 C310.634719,26.8157744 310.558875,27.0445263 310.581958,27.2749121 L312.230754,43.6143321 C312.272798,44.0309873 312.627289,44.349606 313.05103,44.349606 L313.918297,44.349606 L314.705597,50.9809597 C314.754236,51.3918961 315.106254,51.702345 315.524224,51.702345 L334.485378,51.702345 C334.905821,51.702345 335.257839,51.3894452 335.30483,50.9752409 L336.047612,44.349606 L336.958572,44.349606 C337.397976,44.349606 337.759887,44.0081122 337.782146,43.5734836 L338.606544,27.2340636 C338.618085,27.0110305 338.53647,26.7920822 338.380659,26.630322 C338.224848,26.4677448 338.008855,26.376244 337.78297,26.376244 L337.13994,26.376244 L337.634579,23.925331 L337.78297,23.925331 C339.146525,23.925331 340.256164,22.825688 340.256164,21.474418 L340.256164,16.572592 C340.256164,15.4427211 339.477108,14.4983026 338.426001,14.2164476 L338.426001,14.2164476 Z M316.348622,7.58591097 L318.355207,7.58591097 L319.839123,10.036824 L316.348622,10.036824 L316.348622,7.58591097 L316.348622,7.58591097 Z M312.226632,12.487737 C312.226632,12.036769 312.596787,11.670766 313.05103,11.670766 L336.134174,11.670766 C336.588418,11.670766 336.958572,12.036769 336.958572,12.487737 L336.958572,13.304708 C336.958572,13.755676 336.588418,14.121679 336.134174,14.121679 L313.05103,14.121679 C312.596787,14.121679 312.226632,13.755676 312.226632,13.304708 L312.226632,12.487737 L312.226632,12.487737 Z M333.747542,50.068403 L316.257114,50.068403 L315.57781,44.349606 L334.388099,44.349606 L333.747542,50.068403 L333.747542,50.068403 Z M336.17457,42.715664 L335.309776,42.715664 L314.651187,42.715664 L313.79711,42.715664 L312.313194,28.010186 L313.05103,28.010186 L336.134174,28.010186 L336.916528,28.010186 L336.17457,42.715664 L336.17457,42.715664 Z M335.458168,26.376244 L313.727036,26.376244 L313.232398,23.925331 L335.952807,23.925331 L335.458168,26.376244 L335.458168,26.376244 Z M338.607368,21.474418 C338.607368,21.925386 338.237214,22.291389 337.78297,22.291389 L336.958572,22.291389 L312.226632,22.291389 L311.402234,22.291389 C310.947991,22.291389 310.577836,21.925386 310.577836,21.474418 L310.577836,16.572592 C310.577836,16.121624 310.947991,15.755621 311.402234,15.755621 L313.05103,15.755621 L336.134174,15.755621 L337.78297,15.755621 C338.237214,15.755621 338.607368,16.121624 338.607368,16.572592 L338.607368,21.474418 Z M324.592602,29.644128 C319.970202,29.644128 316.348622,32.1563138 316.348622,35.362925 C316.348622,38.5695362 319.970202,41.081722 324.592602,41.081722 C329.215002,41.081722 332.836582,38.5695362 332.836582,35.362925 C332.836582,32.1563138 329.215002,29.644128 324.592602,29.644128 Z" id="coffee"></path>
                        </g>
                    </g>
                </g>
            </g>
        </g>
    </g>
</svg>