<?xml version="1.0" encoding="UTF-8" standalone="no"?>
<svg width="45px" height="45px" viewBox="0 0 45 45" version="1.1" xmlns="http://www.w3.org/2000/svg" xmlns:xlink="http://www.w3.org/1999/xlink">
    <!-- Generator: Sketch 3.7.2 (28276) - http://www.bohemiancoding.com/sketch -->
    <title>linkedin-button</title>
    <desc>Created with Sketch.</desc>
    <defs></defs>
    <g id="Page-1" stroke="none" stroke-width="1" fill="none" fill-rule="evenodd">
        <g id="portfolio_gon" transform="translate(-582.000000, -3695.000000)">
            <g id="contact" transform="translate(0.000000, 2987.000000)">
                <g id="social" transform="translate(582.000000, 708.000000)">
                    <g id="linkedin-button">
                        <path d="M22.4719097,0 C10.0617967,0 0,10.0617967 0,22.4719097 C0,34.8820226 10.0617967,44.9438193 22.4719097,44.9438193 C34.8820226,44.9438193 44.9438193,34.8820226 44.9438193,22.4719097 C44.9438193,10.0590246 34.8820226,0 22.4719097,0 L22.4719097,0 Z" id="Shape" fill="#0274B5"></path>
                        <path d="M32.656617,33.3567351 L28.0662493,33.3567351 L28.0662493,23.4231821 C28.0662493,22.2594896 27.7334422,21.4447614 26.3035342,21.4447614 C23.9325854,21.4447614 23.4758816,23.4231821 23.4758816,23.4231821 L23.4758816,33.3567351 L18.8855138,33.3567351 L18.8855138,17.2904103 L23.4758816,17.2904103 L23.4758816,18.8258683 C24.1322847,18.32326 25.7710277,17.2926753 28.0662493,17.2926753 C29.5535378,17.2926753 32.656617,18.1832062 32.656617,23.5630849 L32.656617,33.3567351 Z M14.437465,16.3058055 C13.2485553,16.3058055 12.2869027,15.3418125 12.2869027,14.1529028 C12.2869027,12.9639931 13.2508958,12 14.437465,12 C15.6263746,12.002265 16.5903677,12.9662581 16.5903677,14.1529028 C16.5903677,15.3418125 15.6263746,16.3058055 14.437465,16.3058055 Z M16.5903677,33.3567351 L12,33.3567351 L12,17.2904103 L16.5903677,17.2904103 L16.5903677,33.3567351 Z" id="Combined-Shape" fill="#FFFFFF"></path>
                    </g>
                </g>
            </g>
        </g>
    </g>
</svg>