<?xml version="1.0" encoding="UTF-8" standalone="no"?>
<svg width="81px" height="66px" viewBox="0 0 81 66" version="1.1" xmlns="http://www.w3.org/2000/svg" xmlns:xlink="http://www.w3.org/1999/xlink">
    <!-- Generator: Sketch 3.7.2 (28276) - http://www.bohemiancoding.com/sketch -->
    <title>send_icon</title>
    <desc>Created with Sketch.</desc>
    <defs></defs>
    <g id="Page-1" stroke="none" stroke-width="1" fill="none" fill-rule="evenodd">
        <g id="portfolio_gon" transform="translate(-680.000000, -3549.000000)" fill="#FFF9F4">
            <g id="contact" transform="translate(0.000000, 2987.000000)">
                <g id="send_icon" transform="translate(680.000000, 562.000000)">
                    <path d="M80.9977852,1.48634532 C80.9982598,1.47669065 80.9985762,1.46719424 80.9988926,1.45753957 C80.999209,1.44646043 80.9985762,1.43553957 80.9985762,1.42446043 C80.9985762,1.40388489 80.9988926,1.38330935 80.9979434,1.36289209 C80.9971523,1.34548201 80.9952539,1.32823022 80.9936719,1.31097842 C80.9935137,1.30876259 80.9933555,1.30638849 80.9930391,1.30417266 C80.9920898,1.29420144 80.9917734,1.28407194 80.9905078,1.27410072 C80.9892422,1.26286331 80.9876602,1.25178417 80.9860781,1.24070504 C80.9837051,1.22440288 80.9802246,1.20825899 80.9772188,1.19195683 C80.9731055,1.16932374 80.9691504,1.14669065 80.9636133,1.12421583 C80.9629805,1.12184173 80.9625059,1.11946763 80.961873,1.11709353 C80.957918,1.10126619 80.9526973,1.0857554 80.9481094,1.06992806 C80.9417813,1.04792806 80.9356113,1.02608633 80.9280176,1.00440288 C80.9243789,0.993956835 80.9202656,0.983827338 80.9164688,0.973539568 C80.9128301,0.964043165 80.9087168,0.955021583 80.9049199,0.94552518 C80.9049199,0.945366906 80.9047617,0.94505036 80.9046035,0.944892086 C80.8973262,0.927007194 80.8905234,0.909122302 80.8824551,0.891553957 C80.8734375,0.871928058 80.8629961,0.853093525 80.8530293,0.833942446 C80.848125,0.824446043 80.8433789,0.81494964 80.8381582,0.805611511 C80.8337285,0.797697842 80.8297734,0.789784173 80.8251855,0.782028777 C80.8095234,0.755597122 80.7921211,0.729798561 80.7745605,0.704316547 C80.7688652,0.696086331 80.7641191,0.687381295 80.7582656,0.679151079 C80.7579492,0.678676259 80.7576328,0.678359712 80.7573164,0.677884892 C80.7565254,0.676776978 80.7555762,0.675669065 80.7547852,0.674561151 C80.739123,0.653194245 80.7215625,0.632776978 80.7043184,0.612201439 C80.6935605,0.599381295 80.6834355,0.585769784 80.6723613,0.573582734 C80.667457,0.568201439 80.6620781,0.562978417 80.6570156,0.557438849 C80.6491055,0.548892086 80.6404043,0.540978417 80.6321777,0.532748201 C80.6147754,0.515179856 80.5976895,0.497294964 80.5794961,0.480834532 C80.5783887,0.479726619 80.5772813,0.478618705 80.5761738,0.477510791 C80.5687383,0.470863309 80.5608281,0.465482014 80.5532344,0.459151079 C80.5497539,0.456143885 80.5461152,0.453294964 80.5424766,0.45028777 C80.5370977,0.445697842 80.5325098,0.44047482 80.5269727,0.436043165 C80.523334,0.433194245 80.5193789,0.431136691 80.5157402,0.428129496 C80.503875,0.418791367 80.4923262,0.409294964 80.4803027,0.400431655 C80.4685957,0.391884892 80.4562559,0.384446043 80.4443906,0.376215827 C80.4222422,0.361179856 80.4000938,0.345985612 80.3771543,0.332532374 C80.3603848,0.322561151 80.3429824,0.314014388 80.3258965,0.304992806 C80.3072285,0.295021583 80.2887188,0.284892086 80.2695762,0.275870504 C80.261666,0.272230216 80.2537559,0.268431655 80.2456875,0.26494964 C80.240625,0.262733813 80.2355625,0.261151079 80.2305,0.258935252 C80.2222734,0.255453237 80.2140469,0.252446043 80.2058203,0.249122302 C80.1896836,0.242633094 80.1737051,0.235827338 80.1574102,0.229971223 C80.1398496,0.223640288 80.1221309,0.21857554 80.1044121,0.213194245 C80.0941289,0.210028777 80.0840039,0.206863309 80.0735625,0.204014388 C80.0626465,0.201007194 80.0517305,0.197683453 80.0406563,0.194834532 C80.0172422,0.188978417 79.9936699,0.184705036 79.9699395,0.180115108 C79.9566504,0.177582734 79.9435195,0.174100719 79.9300723,0.172043165 C79.9265918,0.171568345 79.9229531,0.171410072 79.9194727,0.170776978 C79.8976406,0.167611511 79.8756504,0.16571223 79.8538184,0.163654676 C79.8349922,0.161913669 79.8163242,0.159856115 79.797498,0.158748201 C79.7889551,0.158273381 79.7805703,0.157798561 79.7720273,0.157640288 C79.7620605,0.157323741 79.7520938,0.157956835 79.742127,0.157956835 L79.7378555,0.157956835 C79.7166563,0.157956835 79.695457,0.157640288 79.6742578,0.158589928 C79.6573301,0.159381295 79.6404023,0.161280576 79.6234746,0.162705036 C79.6122422,0.163654676 79.6010098,0.16428777 79.5897773,0.165553957 C79.5771211,0.166978417 79.564623,0.168402878 79.552125,0.170302158 C79.5353555,0.172676259 79.5187441,0.176316547 79.5019746,0.179323741 C79.4810918,0.183280576 79.4600508,0.186604317 79.4393262,0.191510791 C79.4369531,0.192143885 79.4345801,0.192935252 79.4320488,0.193568345 C79.4144883,0.197841727 79.3970859,0.203381295 79.3796836,0.208446043 C79.3583262,0.214618705 79.3369688,0.220633094 79.3159277,0.228071942 C79.3056445,0.231553957 79.2956777,0.235669065 79.2855527,0.239467626 C79.2828633,0.240417266 79.2801738,0.24105036 79.2774844,0.242 L0.808734375,30.6304892 C0.320835938,30.8194676 -0.0006328125,31.289223 3.01579941e-13,31.8126331 C0.000474609375,32.3360432 0.323050781,32.8051655 0.811265625,32.993036 L24.2058691,41.9949928 L31.7023242,65.1226906 C31.7034316,65.1260144 31.7051719,65.1288633 31.7062793,65.1320288 C31.7084941,65.1388345 31.7100762,65.1457986 31.7124492,65.1526043 C31.730168,65.2030935 31.7521582,65.2521583 31.7763633,65.3004317 C31.7814258,65.3104029 31.7866465,65.3200576 31.7918672,65.3298705 C31.8154395,65.3740288 31.8413848,65.4170791 31.8704941,65.4585468 C31.874291,65.4640863 31.8776133,65.4699424 31.8815684,65.4753237 C31.8834668,65.4780144 31.8853652,65.480705 31.8874219,65.4833957 C31.8896367,65.4862446 31.8920098,65.488777 31.8942246,65.4917842 C31.9037168,65.504446 31.9143164,65.5166331 31.9244414,65.5289784 C31.9364648,65.5438561 31.9478555,65.5590504 31.9605117,65.5734532 C31.9703203,65.5843741 31.9810781,65.5945036 31.9913613,65.6051079 C31.9961074,65.6100144 32.0008535,65.6149209 32.0055996,65.6198273 C32.012877,65.6271079 32.0196797,65.6348633 32.0271152,65.6419856 C32.0348672,65.6494245 32.0423027,65.6570216 32.0502129,65.6643022 C32.0578066,65.6712662 32.0660332,65.6775971 32.0739434,65.6842446 C32.0983066,65.7056115 32.1229863,65.7263453 32.1489316,65.7459712 C32.1505137,65.7472374 32.1519375,65.7485036 32.1535195,65.7497698 C32.1558926,65.7515108 32.1587402,65.752777 32.1611133,65.754518 C32.1690234,65.7602158 32.1770918,65.7654388 32.185002,65.7709784 C32.2256602,65.7993094 32.268375,65.8254245 32.3128301,65.8490072 C32.3201074,65.8528058 32.3269102,65.8577122 32.3341875,65.8613525 C32.3365605,65.8626187 32.3389336,65.8634101 32.3413066,65.8646763 C32.3830723,65.8854101 32.4259453,65.9045612 32.470875,65.9210216 C32.4803672,65.9245036 32.4900176,65.9268777 32.4995098,65.9300432 C32.5120078,65.9343165 32.5245059,65.9381151 32.5371621,65.9419137 C32.591584,65.9585324 32.6463223,65.9719856 32.7012188,65.9811655 C32.70375,65.9816403 32.706123,65.9824317 32.7086543,65.9829065 C32.713875,65.9836978 32.7190957,65.9835396 32.7243164,65.9843309 C32.7849082,65.9931942 32.8456582,65.9985755 32.9057754,65.9985755 L32.9059336,65.9985755 L32.9059336,65.9985755 L32.9060918,65.9985755 C32.9109961,65.9985755 32.9157422,65.9974676 32.9206465,65.9974676 C32.9726953,65.9968345 33.0245859,65.9925612 33.0761602,65.9855971 C33.0839121,65.9844892 33.0918223,65.9846475 33.099416,65.9835396 C33.1104902,65.9817986 33.1215645,65.9778417 33.1326387,65.9757842 C33.1726641,65.9685036 33.2122148,65.9593237 33.2514492,65.9480863 C33.2642637,65.944446 33.2772363,65.9420719 33.2898926,65.9381151 C33.2921074,65.937482 33.2943223,65.9371655 33.2965371,65.9365324 C33.3025488,65.9346331 33.3082441,65.9317842 33.3142559,65.9297266 C33.333082,65.9233957 33.3514336,65.9157986 33.3699434,65.908518 C33.394623,65.898705 33.4191445,65.8887338 33.442875,65.8776547 C33.4465137,65.8760719 33.4501523,65.8748058 33.453791,65.8730647 C33.4558477,65.8719568 33.4582207,65.8713237 33.4602773,65.8703741 C33.4721426,65.8646763 33.483375,65.8577122 33.495082,65.8515396 C33.5196035,65.8387194 33.5434922,65.8251079 33.5669063,65.8108633 C33.5824102,65.8013669 33.5977559,65.7918705 33.6127852,65.781741 C33.6129434,65.7815827 33.6131016,65.7815827 33.6132598,65.7814245 C33.6176895,65.7784173 33.6222773,65.7758849 33.626707,65.7728777 C33.647748,65.7583165 33.6676816,65.7423309 33.6877734,65.7266619 C33.6994805,65.717482 33.7113457,65.7089353 33.7227363,65.6992806 C33.7352344,65.6886763 33.7472578,65.6774388 33.7592813,65.6663597 C33.7686152,65.6579712 33.7774746,65.6491079 33.7866504,65.6402446 C33.8255684,65.6024173 33.8625879,65.5628489 33.8962852,65.5205899 C33.8991328,65.5171079 33.9021387,65.5137842 33.9049863,65.5101439 C33.908625,65.5053957 33.9117891,65.5001727 33.9152695,65.4954245 C33.917959,65.4919424 33.921123,65.4889353 33.9238125,65.485295 L43.1718926,52.9824892 C43.5876504,52.4203022 43.4693145,51.6275108 42.907377,51.2115683 C42.3455977,50.7956259 41.5528418,50.9141727 41.1372422,51.4762014 L37.1191992,56.9084604 L40.3126875,48.1866475 L70.540875,59.6647914 C70.6861055,59.7198705 70.8382969,59.7472518 70.9898555,59.7472518 C71.2111816,59.7472518 71.4315586,59.6891655 71.6275723,59.5748921 C71.957584,59.3822734 72.1830234,59.0508489 72.2409258,58.6730504 L80.9856035,1.61517986 C80.9860781,1.61248921 80.9859199,1.60979856 80.9862363,1.60710791 C80.9892422,1.58605755 80.9909824,1.56500719 80.9930391,1.54395683 C80.9947793,1.52480576 80.9968359,1.50565468 80.9977852,1.48634532 L80.9977852,1.48634532 Z M71.1213223,6.11663309 L34.9711172,32.3832086 C34.405541,32.7940863 34.2800859,33.5859281 34.6907813,34.1517554 C34.9383691,34.4928345 35.3243848,34.6738993 35.7157793,34.6738993 C35.9736504,34.6738993 36.2338945,34.5952374 36.458543,34.4320576 L70.9917539,9.34034532 L38.6719629,45.6473094 C38.5465078,45.7710791 38.4441504,45.9223885 38.3775469,46.0980719 C38.3661563,46.1278273 38.3574551,46.1580576 38.3484375,46.1881295 L32.9790234,60.8526331 L26.4273574,40.6400144 C26.3050664,40.2626906 26.0223574,39.9825468 25.679373,39.8497554 C25.6774746,39.848964 25.6757344,39.8480144 25.6736777,39.847223 L4.78137305,31.8080432 L71.1213223,6.11663309 L71.1213223,6.11663309 Z M69.9757734,56.7419568 L41.7320859,46.0173525 L77.8351465,5.46058993 L69.9757734,56.7419568 Z M29.3476289,39.3010216 C29.6055,39.3010216 29.8657441,39.2223597 30.0903926,39.0591799 L32.5504512,37.2716403 C33.1160273,36.8607626 33.2414824,36.0689209 32.8307871,35.5030935 C32.4199336,34.9372662 31.6284434,34.8117554 31.0630254,35.2226331 L28.6029668,37.0101727 C28.0373906,37.4210504 27.9119355,38.2128921 28.3226309,38.7787194 C28.5702187,39.1199568 28.9562344,39.3010216 29.3476289,39.3010216 Z" id="Combined-Shape"></path>
                </g>
            </g>
        </g>
    </g>
</svg>